# xmcd
# 
# Track frame offsets:
#     150
#     3891
#     27127
#     67441
#     102651
#     129532
#     161878
# 
# Disc length: 2631
# 
# Revision: 1
# Processed by: cddbd v1.5.2PL0 Copyright (c) Steve Scherf et al.
# Submitted via: BonkEnc v1.0.8
# 
DISCID=5f0a4507
DTITLE=Petter Wettre - Appetite For Structure
DYEAR=2007
DGENRE=Contemporary Jazz
TTITLE0=Trailerpark Blues
TTITLE1=The One That Got Away
TTITLE2=Trophy Wife
TTITLE3=Dr. Livingstone
TTITLE4=All Dressed Up
TTITLE5=Take It Away But Bring It Back
TTITLE6=Tailwind
EXTD=
EXTT0=
EXTT1=
EXTT2=
EXTT3=
EXTT4=
EXTT5=
EXTT6=
PLAYORDER=
